<?xml version="1.0" standalone="no"?>
<!DOCTYPE svg PUBLIC "-//W3C//DTD SVG 20010904//EN"
 "http://www.w3.org/TR/2001/REC-SVG-20010904/DTD/svg10.dtd">
<svg version="1.0" xmlns="http://www.w3.org/2000/svg"
 width="382.000000pt" height="132.000000pt" viewBox="0 0 382.000000 132.000000"
 preserveAspectRatio="xMidYMid meet">

<g transform="translate(0.000000,132.000000) scale(0.100000,-0.100000)"
fill="#000000" stroke="none">
<path d="M520 1143 l0 -148 -98 0 c-90 0 -103 -3 -164 -33 -84 -41 -123 -87
-150 -175 -53 -176 17 -353 162 -408 71 -27 213 -34 340 -17 l95 13 3 458 2
457 -95 0 -95 0 0 -147z m-2 -471 l2 -162 -62 0 c-109 0 -168 56 -168 160 0
117 79 188 190 170 l35 -5 3 -163z"/>
<path d="M840 1190 l0 -100 95 0 95 0 0 100 0 100 -95 0 -95 0 0 -100z"/>
<path d="M1315 993 c-11 -2 -50 -13 -87 -24 l-68 -20 0 -74 c0 -41 1 -75 3
-75 1 0 27 9 57 21 30 12 89 23 130 26 89 6 113 -7 108 -60 -3 -31 -3 -31 -91
-44 -89 -12 -165 -40 -201 -71 -55 -49 -71 -158 -33 -232 37 -73 73 -85 247
-85 80 0 171 4 203 9 l57 7 0 237 c0 303 -8 333 -95 373 -30 14 -62 18 -125
18 -47 -1 -94 -3 -105 -6z m155 -438 l0 -64 -46 -7 c-55 -8 -120 9 -134 36
-13 25 2 65 32 81 23 12 127 28 141 21 4 -2 7 -32 7 -67z"/>
<path d="M1890 989 c-30 -5 -76 -14 -102 -20 l-48 -11 0 -299 0 -299 95 0 95
0 0 234 c0 267 -8 246 96 246 97 0 98 -3 102 -267 l3 -213 95 0 94 0 0 238 c0
209 -3 242 -19 277 -40 87 -102 117 -251 121 -58 2 -130 -1 -160 -7z"/>
<path d="M2678 985 c-190 -38 -292 -158 -291 -345 0 -125 58 -222 160 -266 43
-18 146 -23 211 -10 42 8 42 8 42 -20 -1 -52 -34 -109 -76 -129 -65 -32 -194
-23 -309 21 -14 6 -15 -5 -13 -81 l3 -88 40 -15 c28 -11 78 -16 170 -16 128
-1 132 0 197 32 77 38 118 82 151 162 21 52 22 69 22 330 l0 275 25 0 c20 0
29 11 54 67 16 37 28 70 25 72 -9 9 -188 26 -264 25 -44 0 -110 -7 -147 -14z
m122 -304 c0 -156 0 -159 -22 -165 -113 -30 -205 47 -194 162 9 100 71 162
164 162 l52 0 0 -159z"/>
<path d="M3295 986 c-92 -29 -149 -78 -187 -161 -19 -42 -23 -66 -23 -155 0
-90 4 -112 24 -152 31 -63 86 -119 147 -149 70 -34 214 -34 291 0 63 28 116
84 151 160 23 48 27 70 27 151 0 87 -3 101 -32 161 -36 74 -93 122 -170 145
-57 17 -174 17 -228 0z m173 -163 c40 -25 65 -97 59 -169 -8 -111 -71 -175
-149 -154 -61 17 -98 82 -98 172 1 136 94 211 188 151z"/>
<path d="M837 693 c-6 -380 -14 -409 -134 -489 l-57 -38 88 -43 c85 -41 89
-42 118 -27 45 23 107 84 128 124 33 64 42 150 47 463 l6 307 -95 0 -96 0 -5
-297z"/>
</g>
</svg>
