<?xml version="1.0" standalone="no"?>
<!DOCTYPE svg PUBLIC "-//W3C//DTD SVG 20010904//EN"
 "http://www.w3.org/TR/2001/REC-SVG-20010904/DTD/svg10.dtd">
<svg version="1.0" xmlns="http://www.w3.org/2000/svg"
 width="860.000000pt" height="900.000000pt" viewBox="0 0 860.000000 900.000000"
 preserveAspectRatio="xMidYMid meet">

<g transform="translate(0.000000,900.000000) scale(0.100000,-0.100000)"
fill="#000000" stroke="none">
<path d="M4030 8580 c-217 -14 -446 -51 -685 -110 -906 -225 -1696 -754 -2259
-1515 -360 -486 -612 -1077 -716 -1680 -45 -265 -54 -371 -54 -685 0 -325 10
-440 60 -720 159 -881 618 -1690 1294 -2284 618 -543 1376 -879 2190 -971 175
-20 723 -20 903 0 430 48 869 173 1262 360 585 278 1099 699 1491 1222 421
560 692 1244 769 1940 20 180 20 728 0 903 -101 891 -487 1701 -1119 2349
-516 528 -1166 901 -1881 1080 -186 46 -282 64 -494 91 -178 23 -565 33 -761
20z m492 -750 c320 -22 632 -88 913 -193 159 -60 179 -69 326 -142 900 -448
1552 -1305 1738 -2286 46 -239 55 -345 55 -619 0 -444 -54 -737 -219 -1190
-21 -58 -109 -247 -154 -330 -359 -671 -961 -1212 -1661 -1493 l-85 -34 -6 61
c-8 69 -35 493 -49 756 -10 193 -30 291 -80 393 -39 81 -102 164 -167 218 -30
26 -47 46 -41 50 6 4 48 10 92 14 98 8 329 55 446 90 645 193 1047 623 1156
1238 33 190 34 481 0 639 -57 271 -186 521 -393 760 l-72 83 -5 320 c-5 309
-19 578 -35 640 -7 29 -9 30 -77 33 -91 5 -185 -12 -319 -58 -193 -65 -456
-196 -596 -295 l-47 -33 -76 23 c-88 27 -245 58 -396 77 -143 18 -689 18 -830
-1 -125 -16 -318 -55 -403 -81 l-62 -20 -70 47 c-104 69 -157 99 -295 168
-219 109 -389 162 -550 172 -90 5 -108 3 -122 -11 -22 -21 -54 -107 -86 -231
-24 -93 -26 -116 -26 -315 -1 -222 4 -256 51 -391 l16 -46 -54 -48 c-309 -278
-448 -489 -500 -755 -42 -222 -9 -495 96 -785 247 -682 821 -1089 1735 -1229
57 -9 79 -15 65 -20 -113 -40 -188 -108 -225 -204 -32 -83 -31 -83 -85 -104
-162 -64 -355 -90 -485 -64 -176 35 -319 139 -440 321 -79 118 -116 161 -194
222 -88 69 -167 109 -253 129 -98 23 -212 6 -227 -33 -14 -36 47 -103 161
-178 127 -82 226 -216 327 -443 65 -145 94 -192 166 -263 181 -181 462 -257
795 -215 72 9 143 19 159 23 l29 6 -5 -367 c-4 -202 -8 -370 -11 -373 -9 -8
-324 102 -447 157 -600 268 -1105 707 -1450 1261 -93 148 -227 421 -286 579
-242 657 -265 1373 -68 2055 93 320 269 679 472 963 449 627 1114 1080 1852
1261 345 85 663 114 1002 91z"/>
</g>
</svg>
